<mxfile host="app.diagrams.net" modified="2020-11-16T09:15:40.715Z" agent="5.0 (Windows NT 10.0; Win64; x64) AppleWebKit/537.36 (KHTML, like Gecko) Chrome/86.0.4240.193 Safari/537.36" etag="r545XRODsnB26eBn6eLD" version="13.9.9" type="github">
  <diagram id="C5RBs43oDa-KdzZeNtuy" name="Page-1">
    <mxGraphModel dx="1550" dy="836" grid="1" gridSize="10" guides="1" tooltips="1" connect="1" arrows="1" fold="1" page="1" pageScale="1" pageWidth="827" pageHeight="1169" math="0" shadow="0">
      <root>
        <mxCell id="WIyWlLk6GJQsqaUBKTNV-0" />
        <mxCell id="WIyWlLk6GJQsqaUBKTNV-1" parent="WIyWlLk6GJQsqaUBKTNV-0" />
        <mxCell id="G7TF3Wtoa4JLNiHY3Xzg-2" value="" style="edgeStyle=orthogonalEdgeStyle;rounded=0;orthogonalLoop=1;jettySize=auto;html=1;" edge="1" parent="WIyWlLk6GJQsqaUBKTNV-1" source="G7TF3Wtoa4JLNiHY3Xzg-0" target="G7TF3Wtoa4JLNiHY3Xzg-1">
          <mxGeometry relative="1" as="geometry" />
        </mxCell>
        <mxCell id="G7TF3Wtoa4JLNiHY3Xzg-0" value="API" style="rounded=1;whiteSpace=wrap;html=1;" vertex="1" parent="WIyWlLk6GJQsqaUBKTNV-1">
          <mxGeometry x="294" y="110" width="120" height="60" as="geometry" />
        </mxCell>
        <mxCell id="G7TF3Wtoa4JLNiHY3Xzg-6" value="" style="edgeStyle=orthogonalEdgeStyle;rounded=0;orthogonalLoop=1;jettySize=auto;html=1;" edge="1" parent="WIyWlLk6GJQsqaUBKTNV-1" source="G7TF3Wtoa4JLNiHY3Xzg-1" target="G7TF3Wtoa4JLNiHY3Xzg-5">
          <mxGeometry relative="1" as="geometry" />
        </mxCell>
        <mxCell id="G7TF3Wtoa4JLNiHY3Xzg-1" value="Apollo Config" style="whiteSpace=wrap;html=1;rounded=1;" vertex="1" parent="WIyWlLk6GJQsqaUBKTNV-1">
          <mxGeometry x="294" y="250" width="120" height="60" as="geometry" />
        </mxCell>
        <mxCell id="G7TF3Wtoa4JLNiHY3Xzg-8" value="N" style="edgeStyle=orthogonalEdgeStyle;rounded=0;orthogonalLoop=1;jettySize=auto;html=1;" edge="1" parent="WIyWlLk6GJQsqaUBKTNV-1" source="G7TF3Wtoa4JLNiHY3Xzg-5" target="G7TF3Wtoa4JLNiHY3Xzg-7">
          <mxGeometry relative="1" as="geometry" />
        </mxCell>
        <mxCell id="G7TF3Wtoa4JLNiHY3Xzg-10" value="" style="edgeStyle=orthogonalEdgeStyle;rounded=0;orthogonalLoop=1;jettySize=auto;html=1;" edge="1" parent="WIyWlLk6GJQsqaUBKTNV-1" source="G7TF3Wtoa4JLNiHY3Xzg-5" target="G7TF3Wtoa4JLNiHY3Xzg-9">
          <mxGeometry relative="1" as="geometry" />
        </mxCell>
        <mxCell id="G7TF3Wtoa4JLNiHY3Xzg-5" value="match?" style="rhombus;whiteSpace=wrap;html=1;rounded=1;" vertex="1" parent="WIyWlLk6GJQsqaUBKTNV-1">
          <mxGeometry x="314" y="380" width="80" height="80" as="geometry" />
        </mxCell>
        <mxCell id="G7TF3Wtoa4JLNiHY3Xzg-7" value="" style="shape=mxgraph.sysml.actFinal;html=1;verticalLabelPosition=bottom;labelBackgroundColor=#ffffff;verticalAlign=top;" vertex="1" parent="WIyWlLk6GJQsqaUBKTNV-1">
          <mxGeometry x="210" y="400" width="40" height="40" as="geometry" />
        </mxCell>
        <mxCell id="G7TF3Wtoa4JLNiHY3Xzg-12" value="" style="edgeStyle=orthogonalEdgeStyle;rounded=0;orthogonalLoop=1;jettySize=auto;html=1;" edge="1" parent="WIyWlLk6GJQsqaUBKTNV-1" source="G7TF3Wtoa4JLNiHY3Xzg-9" target="G7TF3Wtoa4JLNiHY3Xzg-11">
          <mxGeometry relative="1" as="geometry" />
        </mxCell>
        <mxCell id="G7TF3Wtoa4JLNiHY3Xzg-9" value="获取指定参数的配置" style="whiteSpace=wrap;html=1;rounded=1;" vertex="1" parent="WIyWlLk6GJQsqaUBKTNV-1">
          <mxGeometry x="454" y="390" width="120" height="60" as="geometry" />
        </mxCell>
        <mxCell id="G7TF3Wtoa4JLNiHY3Xzg-14" value="" style="edgeStyle=orthogonalEdgeStyle;rounded=0;orthogonalLoop=1;jettySize=auto;html=1;" edge="1" parent="WIyWlLk6GJQsqaUBKTNV-1" source="G7TF3Wtoa4JLNiHY3Xzg-11" target="G7TF3Wtoa4JLNiHY3Xzg-13">
          <mxGeometry relative="1" as="geometry" />
        </mxCell>
        <mxCell id="G7TF3Wtoa4JLNiHY3Xzg-11" value="根据配置获取匹配的补偿数据" style="whiteSpace=wrap;html=1;rounded=1;" vertex="1" parent="WIyWlLk6GJQsqaUBKTNV-1">
          <mxGeometry x="454" y="513" width="120" height="60" as="geometry" />
        </mxCell>
        <mxCell id="G7TF3Wtoa4JLNiHY3Xzg-16" value="" style="edgeStyle=orthogonalEdgeStyle;rounded=0;orthogonalLoop=1;jettySize=auto;html=1;" edge="1" parent="WIyWlLk6GJQsqaUBKTNV-1" source="G7TF3Wtoa4JLNiHY3Xzg-13" target="G7TF3Wtoa4JLNiHY3Xzg-15">
          <mxGeometry relative="1" as="geometry" />
        </mxCell>
        <mxCell id="G7TF3Wtoa4JLNiHY3Xzg-13" value="cus_agent_code group" style="whiteSpace=wrap;html=1;rounded=1;" vertex="1" parent="WIyWlLk6GJQsqaUBKTNV-1">
          <mxGeometry x="230" y="513" width="120" height="60" as="geometry" />
        </mxCell>
        <mxCell id="G7TF3Wtoa4JLNiHY3Xzg-18" value="" style="edgeStyle=orthogonalEdgeStyle;rounded=0;orthogonalLoop=1;jettySize=auto;html=1;" edge="1" parent="WIyWlLk6GJQsqaUBKTNV-1" source="G7TF3Wtoa4JLNiHY3Xzg-15" target="G7TF3Wtoa4JLNiHY3Xzg-17">
          <mxGeometry relative="1" as="geometry" />
        </mxCell>
        <mxCell id="G7TF3Wtoa4JLNiHY3Xzg-15" value="invoke gdws" style="whiteSpace=wrap;html=1;rounded=1;" vertex="1" parent="WIyWlLk6GJQsqaUBKTNV-1">
          <mxGeometry x="230" y="670" width="120" height="60" as="geometry" />
        </mxCell>
        <mxCell id="G7TF3Wtoa4JLNiHY3Xzg-20" value="N" style="edgeStyle=orthogonalEdgeStyle;rounded=0;orthogonalLoop=1;jettySize=auto;html=1;" edge="1" parent="WIyWlLk6GJQsqaUBKTNV-1" source="G7TF3Wtoa4JLNiHY3Xzg-17" target="G7TF3Wtoa4JLNiHY3Xzg-19">
          <mxGeometry relative="1" as="geometry" />
        </mxCell>
        <mxCell id="G7TF3Wtoa4JLNiHY3Xzg-24" value="Y" style="edgeStyle=orthogonalEdgeStyle;rounded=0;orthogonalLoop=1;jettySize=auto;html=1;" edge="1" parent="WIyWlLk6GJQsqaUBKTNV-1" source="G7TF3Wtoa4JLNiHY3Xzg-17" target="G7TF3Wtoa4JLNiHY3Xzg-23">
          <mxGeometry relative="1" as="geometry" />
        </mxCell>
        <mxCell id="G7TF3Wtoa4JLNiHY3Xzg-17" value="result?" style="rhombus;whiteSpace=wrap;html=1;rounded=1;" vertex="1" parent="WIyWlLk6GJQsqaUBKTNV-1">
          <mxGeometry x="450" y="660" width="80" height="80" as="geometry" />
        </mxCell>
        <mxCell id="G7TF3Wtoa4JLNiHY3Xzg-22" value="" style="edgeStyle=orthogonalEdgeStyle;rounded=0;orthogonalLoop=1;jettySize=auto;html=1;" edge="1" parent="WIyWlLk6GJQsqaUBKTNV-1" source="G7TF3Wtoa4JLNiHY3Xzg-19" target="G7TF3Wtoa4JLNiHY3Xzg-21">
          <mxGeometry relative="1" as="geometry" />
        </mxCell>
        <mxCell id="G7TF3Wtoa4JLNiHY3Xzg-19" value="update status" style="whiteSpace=wrap;html=1;rounded=1;" vertex="1" parent="WIyWlLk6GJQsqaUBKTNV-1">
          <mxGeometry x="590" y="670" width="120" height="60" as="geometry" />
        </mxCell>
        <mxCell id="G7TF3Wtoa4JLNiHY3Xzg-21" value="" style="shape=mxgraph.sysml.actFinal;html=1;verticalLabelPosition=bottom;labelBackgroundColor=#ffffff;verticalAlign=top;" vertex="1" parent="WIyWlLk6GJQsqaUBKTNV-1">
          <mxGeometry x="630" y="790" width="40" height="40" as="geometry" />
        </mxCell>
        <mxCell id="G7TF3Wtoa4JLNiHY3Xzg-26" value="" style="edgeStyle=orthogonalEdgeStyle;rounded=0;orthogonalLoop=1;jettySize=auto;html=1;" edge="1" parent="WIyWlLk6GJQsqaUBKTNV-1" source="G7TF3Wtoa4JLNiHY3Xzg-23" target="G7TF3Wtoa4JLNiHY3Xzg-25">
          <mxGeometry relative="1" as="geometry" />
        </mxCell>
        <mxCell id="G7TF3Wtoa4JLNiHY3Xzg-23" value="call proc" style="whiteSpace=wrap;html=1;rounded=1;" vertex="1" parent="WIyWlLk6GJQsqaUBKTNV-1">
          <mxGeometry x="430" y="800" width="120" height="60" as="geometry" />
        </mxCell>
        <mxCell id="G7TF3Wtoa4JLNiHY3Xzg-27" style="edgeStyle=orthogonalEdgeStyle;rounded=0;orthogonalLoop=1;jettySize=auto;html=1;exitX=1;exitY=0.5;exitDx=0;exitDy=0;entryX=0.5;entryY=1;entryDx=0;entryDy=0;entryPerimeter=0;" edge="1" parent="WIyWlLk6GJQsqaUBKTNV-1" source="G7TF3Wtoa4JLNiHY3Xzg-25" target="G7TF3Wtoa4JLNiHY3Xzg-21">
          <mxGeometry relative="1" as="geometry" />
        </mxCell>
        <mxCell id="G7TF3Wtoa4JLNiHY3Xzg-25" value="update status" style="whiteSpace=wrap;html=1;rounded=1;" vertex="1" parent="WIyWlLk6GJQsqaUBKTNV-1">
          <mxGeometry x="430" y="910" width="120" height="60" as="geometry" />
        </mxCell>
      </root>
    </mxGraphModel>
  </diagram>
</mxfile>
